<?xml version="1.0" standalone="no"?>
<!DOCTYPE svg PUBLIC "-//W3C//DTD SVG 20010904//EN"
 "http://www.w3.org/TR/2001/REC-SVG-20010904/DTD/svg10.dtd">
<svg version="1.0" xmlns="http://www.w3.org/2000/svg"
 width="1763.000000pt" height="1295.000000pt" viewBox="0 0 1763.000000 1295.000000"
 preserveAspectRatio="xMidYMid meet">

<g transform="translate(0.000000,1295.000000) scale(0.100000,-0.100000)"
fill="#000000" stroke="none">
<path d="M10852 10110 c-929 -5 -954 -5 -968 -24 -18 -26 -18 -86 1 -113 20
-28 59 -40 185 -53 57 -5 120 -18 140 -28 71 -35 65 274 65 -3352 0 -3119 -1
-3278 -18 -3333 -22 -70 -75 -132 -137 -161 -42 -19 -73 -21 -485 -29 -538
-10 -808 -5 -885 19 -68 20 -123 73 -142 134 -11 37 -13 602 -13 3310 0 3116
1 3266 18 3298 26 48 82 83 205 131 60 23 118 51 127 61 27 29 24 99 -5 122
-21 17 -160 18 -3750 18 -3598 0 -3727 -1 -3743 -18 -22 -24 -22 -84 1 -110
10 -12 60 -33 117 -51 160 -49 207 -86 238 -185 19 -64 18 -6469 -2 -6545 -10
-38 -25 -65 -52 -92 -37 -37 -76 -53 -247 -98 -55 -15 -74 -45 -70 -107 2 -40
7 -51 28 -61 20 -10 1167 -12 5795 -10 3252 1 5778 6 5788 11 48 23 47 5 47
956 0 877 0 890 -20 910 -23 23 -68 26 -92 7 -13 -10 -17 -43 -21 -172 -15
-445 -116 -765 -328 -1048 -129 -172 -280 -299 -454 -383 -114 -54 -210 -81
-344 -95 -131 -14 -1119 -3 -1201 13 -103 20 -152 56 -192 143 l-23 50 -3
3179 c-2 2487 0 3182 10 3193 22 27 59 35 84 18 29 -19 23 -9 270 -415 417
-687 612 -1011 1072 -1785 261 -440 581 -973 710 -1185 522 -855 1149 -1898
1455 -2422 47 -81 125 -209 173 -285 48 -76 107 -178 130 -228 92 -194 83
-243 -51 -285 -22 -7 -48 -19 -57 -28 -25 -21 -24 -93 1 -123 l19 -24 971 -3
c962 -2 971 -2 991 18 14 14 20 33 20 64 0 37 -5 48 -31 70 -30 26 -53 31
-116 27 -109 -8 -198 45 -222 130 -9 34 -11 795 -9 3319 3 3025 4 3278 20
3312 22 50 74 82 200 124 116 38 148 63 148 114 0 15 -9 39 -21 54 l-20 26
-420 0 -420 0 -24 -25 c-31 -30 -34 -86 -6 -114 11 -11 53 -29 93 -41 194 -56
247 -92 269 -187 5 -21 9 -1452 9 -3226 0 -2957 -1 -3190 -16 -3220 l-17 -32
-25 31 c-32 39 -1144 1858 -1507 2464 -150 250 -479 804 -732 1230 -253 426
-558 937 -678 1135 -120 198 -348 575 -506 838 -158 262 -311 510 -339 550
-86 122 -122 205 -128 292 -6 92 5 108 87 131 90 26 120 65 101 134 -12 45
-27 59 -66 63 -16 2 -458 0 -982 -3z m-4662 -188 c371 -87 678 -340 864 -709
120 -240 160 -417 171 -757 3 -98 10 -187 16 -197 14 -27 54 -34 84 -15 l26
17 -1 799 c-1 440 1 804 4 809 13 20 66 23 94 5 61 -39 80 -88 92 -233 13
-162 13 -6321 0 -6391 -12 -65 -44 -130 -83 -170 -31 -32 -62 -38 -90 -17 -17
11 -18 66 -17 817 0 838 0 835 -40 840 -40 6 -61 -1 -69 -22 -5 -13 -14 -131
-20 -263 -12 -265 -23 -329 -82 -501 -79 -230 -195 -422 -348 -575 -151 -151
-312 -247 -506 -304 -199 -57 -150 -56 -1740 -53 -1628 3 -1515 -2 -1602 72
-53 46 -81 113 -93 228 -15 143 -12 2963 3 3008 7 19 27 44 46 57 l34 23 947
0 c641 0 965 -4 1005 -11 142 -26 198 -91 230 -265 27 -145 24 -139 75 -139
37 0 46 4 57 25 17 33 19 894 2 937 -13 34 -25 43 -65 43 -42 0 -50 -13 -57
-90 -12 -130 -58 -235 -123 -279 -73 -50 -56 -49 -1103 -52 -971 -2 -982 -2
-1009 18 -15 11 -32 35 -39 54 -15 43 -18 2859 -3 3012 15 155 55 224 154 269
l51 23 1295 6 c1656 7 1731 6 1840 -19z m4239 -219 c-15 -18 -34 -1 -25 22 5
14 9 15 21 5 12 -10 13 -16 4 -27z"/>
</g>
</svg>
