<?xml version="1.0" standalone="no"?>
<!DOCTYPE svg PUBLIC "-//W3C//DTD SVG 20010904//EN"
 "http://www.w3.org/TR/2001/REC-SVG-20010904/DTD/svg10.dtd">
<svg version="1.0" xmlns="http://www.w3.org/2000/svg"
 width="800.000000pt" height="800.000000pt" viewBox="0 0 800.000000 800.000000"
 preserveAspectRatio="xMidYMid meet">
<metadata>
Created by potrace 1.14, written by Peter Selinger 2001-2017
</metadata>
<g transform="translate(0.000000,800.000000) scale(0.100000,-0.100000)"
fill="#000000" stroke="none">
<path d="M3977 7364 c-3 -3 -62 -7 -132 -9 -70 -2 -143 -6 -163 -9 -20 -3 -62
-8 -92 -12 -81 -10 -166 -23 -200 -30 -258 -52 -505 -125 -680 -202 -154 -67
-229 -102 -260 -123 -14 -9 -29 -18 -35 -19 -24 -6 -55 -24 -55 -32 0 -5 -4
-7 -9 -4 -5 3 -14 -1 -21 -9 -7 -8 -16 -15 -21 -15 -23 0 -370 -236 -404 -275
-5 -6 -19 -17 -31 -25 -92 -65 -324 -294 -450 -445 -97 -116 -224 -289 -224
-304 0 -5 -4 -11 -8 -13 -7 -2 -47 -65 -97 -150 -13 -23 -64 -116 -78 -142 -5
-12 -14 -28 -18 -36 -25 -45 -62 -127 -62 -137 0 -7 -4 -13 -9 -13 -4 0 -8 -5
-8 -10 0 -6 -9 -30 -20 -52 -11 -23 -20 -46 -20 -51 0 -5 -7 -23 -15 -40 -24
-53 -109 -319 -121 -380 -2 -10 -6 -27 -9 -37 -6 -20 -13 -50 -21 -90 -2 -14
-7 -36 -9 -50 -21 -102 -24 -121 -30 -166 -3 -22 -7 -55 -10 -74 -9 -65 -17
-165 -20 -238 -1 -40 -4 -75 -8 -78 -3 -3 -1 -18 3 -34 4 -16 7 -30 5 -32 -10
-9 -2 -257 11 -348 3 -25 7 -61 9 -80 6 -56 15 -124 20 -140 2 -8 7 -35 10
-60 4 -24 8 -47 10 -50 2 -3 6 -21 9 -41 3 -19 9 -46 14 -58 l8 -23 1530 -2
1529 -1 51 -27 c62 -32 118 -95 137 -152 21 -62 15 -162 -13 -216 -37 -73
-103 -125 -185 -147 -11 -3 -661 -6 -1445 -8 -784 -1 -1426 -3 -1427 -4 -1 0
13 -29 30 -63 17 -35 31 -65 32 -68 6 -38 173 -321 285 -484 206 -300 541
-626 865 -843 110 -73 315 -194 315 -186 0 3 8 -1 18 -9 14 -12 35 -23 62 -33
3 -1 41 -19 85 -39 82 -38 91 -42 160 -70 51 -20 88 -33 98 -35 4 0 24 -8 45
-17 20 -8 44 -17 52 -19 8 -2 47 -14 85 -25 39 -12 86 -26 105 -30 155 -36
229 -52 255 -56 17 -3 41 -7 55 -10 14 -2 45 -6 70 -9 25 -2 56 -7 70 -10 32
-7 132 -15 240 -19 47 -2 90 -5 95 -6 6 -1 12 -2 15 -1 3 1 77 4 165 6 88 3
174 7 190 9 17 2 58 7 92 10 34 4 72 9 84 11 22 4 82 14 124 20 11 2 54 11 95
20 41 9 82 18 90 20 34 7 106 26 120 32 8 3 20 7 26 8 6 2 38 11 70 20 33 9
60 16 62 16 1 -1 16 6 32 14 16 8 32 15 35 15 3 0 21 7 41 15 20 8 40 15 45
15 5 0 38 14 74 30 36 17 68 30 70 30 12 0 161 76 167 85 4 5 8 6 8 2 0 -5 12
0 28 10 15 10 45 28 67 38 22 11 42 23 43 28 2 4 8 7 12 7 5 0 31 13 57 30
338 212 624 460 849 739 10 13 24 28 29 35 61 68 275 384 275 405 0 5 3 11 8
13 15 6 186 349 180 361 -1 1 5 13 12 27 8 14 15 30 16 35 1 6 10 28 19 50 10
22 19 42 20 45 0 3 15 48 32 100 30 91 61 195 69 233 2 9 6 27 10 40 3 12 7
31 9 42 3 11 7 31 10 45 22 100 35 176 31 187 -3 7 -2 13 2 13 4 0 8 8 8 18 1
9 4 40 8 67 10 71 16 143 20 240 2 46 6 87 9 92 2 4 1 17 -3 28 -4 11 -4 32 1
47 4 14 5 29 2 32 -3 3 -7 52 -8 108 -4 133 -19 287 -40 403 -5 31 -14 83 -21
125 -11 63 -16 80 -27 81 -7 1 -696 2 -1532 3 -1277 2 -1526 4 -1557 16 -21 8
-38 18 -38 22 0 4 -6 8 -13 8 -17 0 -67 54 -98 105 -20 34 -24 53 -23 120 0
57 6 91 19 120 26 54 87 113 144 138 l46 21 1437 1 c790 0 1439 3 1441 5 3 3
-6 27 -18 53 -13 26 -24 50 -24 53 0 7 -94 191 -121 239 -13 22 -28 49 -34 60
-6 11 -37 60 -68 108 -32 48 -58 90 -58 92 0 3 -7 13 -15 23 -9 9 -51 64 -95
121 -145 191 -350 404 -515 536 -27 22 -58 47 -68 56 -10 9 -55 43 -100 75
-45 32 -98 69 -117 83 -19 14 -37 26 -40 26 -3 0 -25 14 -50 30 -25 16 -54 35
-65 41 -11 6 -38 21 -60 34 -55 31 -197 103 -270 135 -33 15 -69 31 -80 36
-11 4 -42 17 -70 27 -27 10 -59 22 -70 27 -11 4 -24 9 -30 11 -5 1 -53 17
-105 34 -52 18 -102 33 -110 35 -8 2 -52 13 -98 25 -122 31 -253 56 -342 65
-19 3 -44 7 -56 9 -22 6 -175 19 -236 20 -21 1 -38 5 -38 9 0 5 -6 5 -12 1
-13 -8 -124 -8 -137 1 -5 2 -11 2 -14 -1z"/>
</g>
</svg>
